<svg xmlns="http://www.w3.org/2000/svg" viewBox="0 0 33.35 33.35"><defs><style>.cls-1{fill:#fff;}.cls-2{fill:#333;}</style></defs><title>Asset 3</title><g id="Layer_2" data-name="Layer 2"><g id="Layer_1-2" data-name="Layer 1"><path class="cls-1" d="M33,10.1a2.65,2.65,0,0,1-2.49-.77A2.84,2.84,0,0,1,30,8.6a2.64,2.64,0,0,1-2.07-.82,2.71,2.71,0,0,1-.71-2.07,2.3,2.3,0,0,1-1.55-3.2,2.49,2.49,0,0,1-.6-.53,2.62,2.62,0,0,1-.55-2H0V33.35H33.35v-23A2.47,2.47,0,0,1,33,10.1Z"/><path class="cls-2" d="M23.71,7.53a2.5,2.5,0,0,1-2.47,2.58c-.54,0-.54,0-1.93-.51a7.64,7.64,0,0,0-2.47-.47c-1.64,0-2.8.83-2.8,2a1.65,1.65,0,0,0,.76,1.38c.66.47.66.47,3,1.09,5.35,1.46,7.64,3.75,7.64,7.68a8.26,8.26,0,0,1-2.07,5.56c-1.53,1.68-4.07,2.59-7.17,2.59-4.83,0-8.25-1.71-8.25-4.12a2.55,2.55,0,0,1,2.4-2.65c.69,0,.69,0,3.34,1a8.08,8.08,0,0,0,2.73.54c1.86,0,3.06-1,3.06-2.54a1.92,1.92,0,0,0-.95-1.75c-.69-.47-1.2-.65-3.85-1.45-2.84-.84-4-1.39-5-2.4a6,6,0,0,1-1.56-4.41c0-4.51,3.75-7.74,9-7.74C21,3.93,23.71,5.42,23.71,7.53Z"/></g></g></svg>