<svg xmlns="http://www.w3.org/2000/svg" viewBox="0 0 142.01 15.99"><defs><style>.cls-1{fill:#fff;}</style></defs><title>Asset 4</title><g id="Layer_2" data-name="Layer 2"><g id="Layer_1-2" data-name="Layer 1"><path class="cls-1" d="M9.9,2.26A1.57,1.57,0,0,1,8.35,3.88c-.34,0-.34,0-1.21-.32a4.83,4.83,0,0,0-1.55-.3c-1,0-1.76.53-1.76,1.26a1,1,0,0,0,.48.86c.41.3.41.3,1.87.69C9.54,7,11,8.42,11,10.88a5.2,5.2,0,0,1-1.3,3.49A6,6,0,0,1,5.18,16C2.14,16,0,14.92,0,13.41a1.6,1.6,0,0,1,1.51-1.66c.43,0,.43,0,2.09.64a5.26,5.26,0,0,0,1.72.34c1.16,0,1.91-.64,1.91-1.6A1.19,1.19,0,0,0,6.64,10a7.86,7.86,0,0,0-2.42-.91A6.49,6.49,0,0,1,1.1,7.62a3.78,3.78,0,0,1-1-2.76C.11,2,2.46,0,5.73,0,8.17,0,9.9.94,9.9,2.26Z"/><path class="cls-1" d="M23.84,2.46A1.44,1.44,0,0,1,22.42,4a3,3,0,0,1-1.27-.37,4.17,4.17,0,0,0-1.83-.39C16.92,3.26,15.49,5,15.49,8s1.43,4.7,3.85,4.7c.87,0,.87,0,2.42-.71a2.19,2.19,0,0,1,.78-.18A1.53,1.53,0,0,1,24,13.44C24,14.92,22,16,19.34,16c-4.58,0-7.59-3.19-7.59-8C11.75,3.26,14.85,0,19.3,0,22,0,23.84,1,23.84,2.46Z"/><path class="cls-1" d="M29,13.5A2.88,2.88,0,0,1,28.74,15a1.75,1.75,0,0,1-3,0,2.55,2.55,0,0,1-.23-1.46V2.92c0-1.07.07-1.35.36-1.76A2,2,0,0,1,27.58.39h3.53c3.22,0,5.32,1.85,5.32,4.72a4.17,4.17,0,0,1-1.19,3.08,4.23,4.23,0,0,1-2.37,1.09l3,3.29c.67.73.85,1.07.85,1.57a1.75,1.75,0,0,1-1.76,1.71c-.61,0-1-.25-1.66-1.09L29,9.42ZM31.13,7A1.73,1.73,0,0,0,33,5.27a1.87,1.87,0,0,0-1.94-1.85H29V7Z"/><path class="cls-1" d="M51.3,8.92c0,2.26-.3,3.33-1.23,4.54A6.76,6.76,0,0,1,44.66,16c-3.76,0-6.59-2.64-6.59-6.16V2.49A2.77,2.77,0,0,1,38.3,1,1.76,1.76,0,0,1,39.82.16,1.73,1.73,0,0,1,41.33,1a2.64,2.64,0,0,1,.23,1.46V9.33a3.07,3.07,0,0,0,3.12,3.4,3.16,3.16,0,0,0,2.49-1.19,4.08,4.08,0,0,0,.64-2.62V2.49A2.77,2.77,0,0,1,48,1,1.76,1.76,0,0,1,49.56.16,1.73,1.73,0,0,1,51.07,1a2.55,2.55,0,0,1,.23,1.46Z"/><path class="cls-1" d="M56,13.78a2.81,2.81,0,0,1-.46,1.41,1.73,1.73,0,0,1-3.08-1.14,4.26,4.26,0,0,1,.1-.82L54.4,2.14a2.35,2.35,0,0,1,4.51-.5l2.56,7.85L63.82,2A2.4,2.4,0,0,1,66.12.16,2.31,2.31,0,0,1,68.43,2l1.94,11.21a3.39,3.39,0,0,1,.11.89,1.75,1.75,0,0,1-3.1,1.11c-.28-.36-.32-.54-.48-1.41L65.74,6.62l-2.15,7.14c-.32,1.07-.43,1.32-.73,1.59a1.8,1.8,0,0,1-1.32.48c-1,0-1.58-.48-1.94-1.66L57.16,6.62Z"/><path class="cls-1" d="M75.4,13.5A2.91,2.91,0,0,1,75.18,15a1.76,1.76,0,0,1-3,0,2.68,2.68,0,0,1-.23-1.46V2.92c0-1.07.07-1.35.37-1.76A2,2,0,0,1,74,.39h3.58a5.35,5.35,0,0,1,3.88,1.25,5.36,5.36,0,0,1,1.6,3.88A5.62,5.62,0,0,1,81.91,9a4.68,4.68,0,0,1-3.86,1.62H75.4Zm1.76-5.93a2.07,2.07,0,0,0,2.33-2.05,2,2,0,0,0-2.15-2.1H75.4V7.57Z"/><path class="cls-1" d="M90.48,13.5A2.77,2.77,0,0,1,90.25,15a1.75,1.75,0,0,1-3,0A2.55,2.55,0,0,1,87,13.5v-10H85.26a2.36,2.36,0,0,1-1.3-.2A1.58,1.58,0,0,1,84,.59a2.32,2.32,0,0,1,1.3-.2h6.89a2.4,2.4,0,0,1,1.3.2,1.59,1.59,0,0,1,0,2.72,2.36,2.36,0,0,1-1.3.2H90.48Z"/><path class="cls-1" d="M95.13,2.49A2.88,2.88,0,0,1,95.36,1,1.78,1.78,0,0,1,96.89.16,1.74,1.74,0,0,1,98.4,1a2.66,2.66,0,0,1,.22,1.46v11A2.91,2.91,0,0,1,98.4,15a1.76,1.76,0,0,1-3,0,2.64,2.64,0,0,1-.23-1.46Z"/><path class="cls-1" d="M115.12,8c0,4.75-3,8-7.46,8-4.59,0-7.58-3.22-7.58-8.14a7.78,7.78,0,0,1,2.49-6,7.49,7.49,0,0,1,5-1.87C112.06,0,115.12,3.24,115.12,8ZM103.8,7.85c0,3.05,1.48,5,3.83,5S111.4,10.93,111.4,8s-1.49-4.85-3.77-4.85S103.8,5,103.8,7.85Z"/><path class="cls-1" d="M129.64,8.92c0,2.26-.29,3.33-1.23,4.54A6.73,6.73,0,0,1,123,16c-3.77,0-6.6-2.64-6.6-6.16V2.49A2.88,2.88,0,0,1,116.64,1a1.78,1.78,0,0,1,1.53-.87,1.74,1.74,0,0,1,1.51.87,2.66,2.66,0,0,1,.22,1.46V9.33a3.08,3.08,0,0,0,3.13,3.4,3.16,3.16,0,0,0,2.49-1.19,4.15,4.15,0,0,0,.63-2.62V2.49A2.88,2.88,0,0,1,126.38,1a1.78,1.78,0,0,1,1.53-.87,1.73,1.73,0,0,1,1.51.87,2.66,2.66,0,0,1,.22,1.46Z"/><path class="cls-1" d="M140.93,2.26a1.57,1.57,0,0,1-1.55,1.62c-.34,0-.34,0-1.21-.32a4.83,4.83,0,0,0-1.55-.3c-1,0-1.75.53-1.75,1.26a1,1,0,0,0,.47.86c.41.3.41.3,1.87.69,3.36.91,4.8,2.35,4.8,4.81a5.2,5.2,0,0,1-1.3,3.49,6,6,0,0,1-4.5,1.62c-3,0-5.18-1.07-5.18-2.58,0-.91.35-1.63,1.17-1.63.43,0,.54,0,2.21.63a6.51,6.51,0,0,0,1.94.32c1.16,0,1.91-.64,1.91-1.6a1.19,1.19,0,0,0-.59-1.09,7.86,7.86,0,0,0-2.42-.91,6.54,6.54,0,0,1-3.12-1.51,3.78,3.78,0,0,1-1-2.76C131.15,2,133.5,0,136.76,0,139.2,0,140.93.94,140.93,2.26Z"/></g></g></svg>